<svg width="72" height="83" viewBox="0 0 72 83" xmlns="http://www.w3.org/2000/svg" xmlns:xlink="http://www.w3.org/1999/xlink"><defs><linearGradient x1="50%" y1="0%" x2="50%" y2="108.1%" id="b"><stop stop-color="#21C2D2" offset="0%"/><stop stop-color="#635FEB" offset="100%"/></linearGradient><path id="a" d="M36 0l36 20.8v41.5L36 83 0 62.3V20.8z"/></defs><g fill="none" fill-rule="evenodd"><g><use fill="#F9FAFB" xlink:href="#a"/><path stroke="url(#b)" stroke-width="3" d="M36 1.7l-34.5 20v39.7l34.4 20 34.4-20V21.6L36 1.6z"/></g><g stroke="#635FEB"><path d="M20.7 28c-1.6 0-3 1.3-3 2.8v21.5h-2.2c-.3 0-.5.2-.5.4v2c0 1.7 1.5 3.2 3.3 3.2h35c2 0 3.4-1.6 3.4-3.4v-2s-.2-.3-.5-.3H54V30.8c0-1.5-1.4-2.8-3-2.8H20.7zm0 1H51c1 0 2 .8 2 1.8v21.5H18.7V30.8c0-1 .8-2 2-2zM16 53h39.7v1.4c0 1.3-1 2.3-2.3 2.3h-35c-1.4 0-2.5-1-2.5-2.4v-1.4z" stroke-width=".5" fill="#635FEB"/><path d="M24.8 48h9.8V38.7c0-.2-.2-.4-.4-.4h-3c-.3 0-.4.2-.4.4v1.6h-2.5v-2.7s-.2-.3-.4-.3h-3.2c-.2 0-.3.2-.3.3v5.7h-3l-.2.4V48h3.5zm6.7-9H34v8.3h-2.5V39zm-3.2 2h2.4v6.3h-2.4V41zM25 38h2.6v9.3H25V38zm-3 6h2.4v3.3H22V44z" stroke-width=".5" fill="#635FEB"/><path d="M38 40h12M18 31.8h35.3M38 43h12M38 46h12" stroke-width="1.1"/></g></g></svg>