<svg width="24" height="24" viewBox="0 0 24 24" version="1.1" xmlns="http://www.w3.org/2000/svg" xmlns:xlink="http://www.w3.org/1999/xlink"><title>LinkedIn</title><desc>Logo</desc><g id="Symbols" stroke="none" stroke-width="1" fill="none" fill-rule="evenodd"><g id="Footer" transform="translate(-1249.000000, -322.000000)"><g id="linkedin-icon-dark" transform="translate(1249.000000, 322.000000)"><circle id="Oval-5-Copy" stroke="#797C92" stroke-width="1.333" cx="12" cy="12" r="11.333"/><path d="M6.68250235,9.19134332 L8.86547507,9.19134332 L8.86547507,16.7992829 L6.68250235,16.7992829 L6.68250235,9.19134332 Z M7.71834431,8.2397234 L7.70253998,8.2397234 C6.91232361,8.2397234 6.4,7.65813805 6.4,6.9216545 C6.4,6.17011141 6.92746943,5.6 7.73349012,5.6 C8.5388523,5.6 9.03405456,6.16867717 9.04985889,6.91950314 C9.04985889,7.65598668 8.5388523,8.2397234 7.71834431,8.2397234 L7.71834431,8.2397234 Z M17.6,16.8 L15.1246472,16.8 L15.1246472,12.8622871 C15.1246472,11.8317838 14.7374412,11.129005 13.8859831,11.129005 C13.2347131,11.129005 12.8725306,11.6030222 12.7039511,12.0612626 C12.6407338,12.2247663 12.6506115,12.453528 12.6506115,12.6830068 L12.6506115,16.8 L10.1983067,16.8 C10.1983067,16.8 10.2299153,9.82527852 10.1983067,9.19134332 L12.6506115,9.19134332 L12.6506115,10.3853502 C12.7954845,9.86328595 13.5791157,9.11819695 14.8296331,9.11819695 C16.3810913,9.11819695 17.6,10.2132411 17.6,12.5689845 L17.6,16.8 L17.6,16.8 Z" id="Shape" fill="#797C92" fill-rule="evenodd"/></g></g></g></svg>