<svg width="116" height="29" viewBox="0 0 116 29" xmlns="http://www.w3.org/2000/svg"><g fill-rule="nonzero" fill="#21C2D2"><path d="M69.5 0c.4.2.8.2 1.3.3 4 1 7 4.3 7.6 8.4.4 3-.2 5.7-2 8-1.8 2.4-4 3.7-7 4-2.5 0-4.8-.4-6.7-2-1-.8-1.8-1.8-2.5-3v12.6c0 .3 0 .5-.5.4h-1.5c-.2 0-.4 0-.3-.3v-.2V1c0-.5 0-.6.5-.6h1.3c.4 0 .5.2.5.5v4l.2-.2C62 2 64.2.6 67.2 0c0 0 .2.2.3 0h2zm-1.3 2.4c-4.4 0-8 3.5-8 8 0 4.6 3.5 8 8 8 4.4 0 8-3.4 8-8 0-4.4-3.5-8-8-8zM42.3 0h1.5l1.2.3c2.4.6 4.3 2 5.6 4.3l.3.5V1c0-.4 0-.6.5-.6H53c.2 0 .3 0 .3.4v18.9c0 .5 0 .6-.6.6h-1.4c-.3 0-.4 0-.4-.4v-4-.4l-1.3 2c-2 2.2-4.5 3.2-7.5 3-4.2 0-7.7-3-9-7-1.3-4 0-9 3.6-11.7 1.4-1 3-1.7 4.6-2 0 0 .2.2.3 0h.6zm.7 2.4c-4.4 0-8 3.5-8 8s3.6 8 8 8c4.5 0 8-3.4 8-8 0-4.4-3.5-8-8-8zM107 0c.5 0 1 .2 1.5.4 3.7 1 6.5 4 7 8 0 .7.2 1.6 0 2.5 0 .3 0 .4-.5.4H99c-.6 0-.6 0-.5.6.6 3.4 2.8 5.7 6 6.4 2.2.4 4 0 6-1 1-.3 2-.8 2.7-1.5 0 0 .2-.2.3 0V18c0 .2-.2.3-.3.3-1.7 1.2-3.7 2-5.8 2-2.4.4-4.6 0-6.7-1.3-2.5-1.5-4-3.8-4.5-6.7-.6-3 0-5.8 1.7-8.4 1.5-2.2 3.8-3.5 6.6-4 0 0 .2.2.3 0h1.9zm-1.2 2.2c-1.7 0-3.3.6-4.6 1.6C99.6 5 98.6 7 98.4 9c0 .4 0 .5.4.5h13c1.8 0 1.8 0 1.3-1.8-.6-3-3-5-6-5.4h-1.2zM7.5 0l1.2.3 2 .7c.2 0 .4.3.4.6v2c0 .2-.2 0-.3 0C9 2.4 7 2 5 2.3c-1.8.4-2.8 2-2.4 3.7.2.6.7 1 1.2 1.5 1.4 1 3 1.8 4.4 2.7l2 1.5c2.6 2.3 2.2 7-1.7 8.4-2.8 1-5.5.8-8-.5-.3 0-.4-.2-.4-.4v-2.3c.6.3 1 .6 1.4 1 1.7.8 3.5 1.2 5.4.7 1.8-.4 2.7-1.6 2.6-3.3 0-.8-.6-1.4-1.2-2L5 11c-1-.6-2-1-3-1.8-1-1-1.7-2-2-3.3.2-.2 0-.3 0-.3v-.2V4.6C0 4 .2 3.6.4 3 1.4 1.3 3 .3 5 0h2.4zM89 0c.3.2.8.2 1.2.3l2 .7c.2 0 .3.3.3.6v2c-.2.2-.3 0-.4 0-1.6-1.2-3.4-1.7-5.5-1.3-1.8.4-3 2-2.4 3.7.3.6.7 1 1.2 1.5 1.4 1 3 1.8 4.4 2.7.8.5 1.5 1 2 1.6 2.7 2.3 2.2 7-1.7 8.4-3 1-5.6.6-8.2-.7l-.2-.4v-2.3l.4.2c1.8 1.3 4 2 6.2 1.4C90 18 91 16.8 90.8 15c0-.8-.5-1.4-1.2-2-1-.8-2.4-1.5-3.6-2.2l-2.5-1.6c-1.6-1.3-2.2-3-2-5 .5-2 1.8-3.2 3.8-3.8L87 0h1.9z"/><path d="M106.5 0c-.4.2-.8.2-1.2 0h1.2zM69 0c-.2.2-.7.2-1 0h1zM88.4 0c-.3.2-.7.2-1 0h1zM7 0c-.4.2-.7.2-1 0h1zM43 0c0 .2-.4.2-.7 0h.8zM0 4.8c.2.2.2.5 0 .7v-.7zM17.6 28.7l1.4-3c1-2.2 2-4.3 2.8-6.5.2-.3.2-.6 0-1L14.4 1c-.2-.6-.2-.6.4-.6h1.6c.4 0 .5 0 .7.5l6 14c0 .3.2.5.3.7.2 0 .2-.2.2-.3 2-5 4.2-9.7 6.2-14.5.2-.5.3-.6.7-.6H32c.6 0 .6 0 .4.5l-3.8 8.7-8 18.5c-.2.4-.4.6-1 .5h-2z"/></g></svg>