<svg width="24" height="24" viewBox="0 0 24 24" version="1.1" xmlns="http://www.w3.org/2000/svg" xmlns:xlink="http://www.w3.org/1999/xlink"><title>Twitter</title><desc>Logo</desc><g id="Symbols" stroke="none" stroke-width="1" fill="none" fill-rule="evenodd"><g id="Footer" transform="translate(-1215.000000, -322.000000)"><g id="twitter-icon-dark" transform="translate(1215.000000, 322.000000)"><circle id="Oval-5-Copy" stroke="#797C92" stroke-width="1.333" cx="12" cy="12" r="11.333"/><path d="M16.9555411,7.80558264 C16.7834936,8.3164644 16.4689301,8.71161165 16.0162743,8.99987187 C16.0685222,9.0127844 16.3921723,8.95168901 16.6389451,8.88413737 C16.8443499,8.82794396 17.0440158,8.75584901 17.2423666,8.67478704 C17.0993723,8.89633253 16.9343789,9.0992266 16.7520492,9.28825165 C16.5697196,9.47715715 16.3720862,9.64848726 16.161062,9.80140506 C16.161062,9.84707715 16.1597468,9.8901189 16.1611815,9.93316066 C16.1683552,10.1422719 16.1608229,10.3510244 16.1438453,10.5594182 C16.0762936,11.3912002 15.8494875,12.1783862 15.4777741,12.9240846 C15.1316466,13.618133 14.6770778,14.2320758 14.1052202,14.7570657 C13.4019657,15.4025725 12.5889547,15.8509242 11.668698,16.104751 C11.3717099,16.1866499 11.0699393,16.2443976 10.7642233,16.2826569 C10.3913143,16.3294051 10.0169705,16.3450675 9.64214857,16.3279703 C8.54362725,16.2779941 7.52796132,15.9598437 6.59538989,15.3767475 C6.5829556,15.368976 6.57088,15.3607264 6.56,15.3506833 C8.03645187,15.512329 9.17980835,14.933776 9.78753407,14.4404697 C9.18160176,14.4140468 8.66761143,14.1895123 8.24914989,13.7556275 C8.01839824,13.516387 7.85364396,13.236496 7.74795253,12.9122481 C8.07722198,12.9727457 8.39860044,12.9636591 8.71663121,12.8768582 C8.13771956,12.7392442 7.67669451,12.4305391 7.34503385,11.9363958 C7.09503297,11.5639651 6.97738549,11.1506446 6.97834198,10.6946411 C7.13341187,10.7768987 7.28872088,10.8432547 7.45239912,10.8885681 C7.6165556,10.9340011 7.78334242,10.9618587 7.96088967,10.9673585 C7.34431648,10.5169743 7.01229714,9.92012857 6.99747165,9.1587677 C6.98970022,8.76087055 7.09240264,8.38891803 7.29386198,8.03908418 C8.11655736,9.02844682 9.13497319,9.71496286 10.3636958,10.0836873 C10.8360791,10.2253664 11.3193424,10.3066675 11.8165943,10.3309382 C11.8110945,10.2999721 11.8066708,10.2743862 11.8017688,10.2488002 C11.7599226,10.0297655 11.7511947,9.80941561 11.7763024,9.58763099 C11.8224527,9.17909297 11.9699903,8.81084682 12.2232193,8.48767495 C12.5622927,8.0553444 13.0021556,7.78131187 13.5425688,7.67693561 C14.2741591,7.53561517 15.0052712,7.76505165 15.5284677,8.29613912 C15.5546514,8.32268154 15.5772484,8.32782264 15.6119209,8.32040989 C16.0700765,8.22225077 16.5028853,8.05821385 16.9090321,7.82411451 C16.9199121,7.81789737 16.9307921,7.81156066 16.9417916,7.8057022 C16.9438242,7.80462616 16.9468132,7.80558264 16.9555411,7.80558264" id="Imported-Layers" fill="#797C92" fill-rule="evenodd"/></g></g></g></svg>