<?xml version="1.0" standalone="no"?>
<!DOCTYPE svg PUBLIC "-//W3C//DTD SVG 20010904//EN"
 "http://www.w3.org/TR/2001/REC-SVG-20010904/DTD/svg10.dtd">
<svg version="1.0" xmlns="http://www.w3.org/2000/svg"
 width="260.000000pt" height="260.000000pt" viewBox="0 0 260.000000 260.000000"
 preserveAspectRatio="xMidYMid meet">
<metadata>
Created by potrace 1.11, written by Peter Selinger 2001-2013
</metadata>
<g transform="translate(0.000000,260.000000) scale(0.100000,-0.100000)"
fill="#000000" stroke="none">
<path d="M0 1300 l0 -1300 1300 0 1300 0 0 1300 0 1300 -1300 0 -1300 0 0
-1300z m1572 1052 c42 -12 111 -37 152 -56 l76 -35 0 -135 c0 -75 -4 -136 -9
-136 -4 0 -39 20 -76 45 -280 184 -670 154 -780 -59 -25 -50 -30 -70 -30 -135
0 -148 49 -201 366 -390 299 -179 388 -241 460 -319 204 -223 194 -550 -23
-747 -114 -105 -261 -155 -478 -162 -199 -7 -338 20 -512 99 l-68 31 0 144 0
144 63 -44 c143 -102 270 -147 437 -154 188 -8 307 31 396 130 55 61 79 134
72 222 -12 142 -67 195 -449 430 -306 188 -389 251 -449 345 -50 78 -72 160
-72 270 0 269 167 460 457 524 102 23 363 16 467 -12z"/>
</g>
</svg>
