<svg width="72" height="83" viewBox="0 0 72 83" xmlns="http://www.w3.org/2000/svg" xmlns:xlink="http://www.w3.org/1999/xlink"><defs><linearGradient x1="50%" y1="0%" x2="50%" y2="108.1%" id="b"><stop stop-color="#21C2D2" offset="0%"/><stop stop-color="#635FEB" offset="100%"/></linearGradient><path id="a" d="M36 0l36 20.8v41.5L36 83 0 62.3V20.8z"/></defs><g fill="none" fill-rule="evenodd"><g><use fill="#F9FAFB" xlink:href="#a"/><path stroke="url(#b)" stroke-width="3" d="M36 1.7l-34.5 20v39.7l34.4 20 34.4-20V21.6L36 1.6z"/></g><g fill="#635FEB"><path d="M23.5 39.2H36V38h-2.4v-9c0-.2-.2-.5-.6-.5h-2.3c-.4 0-.6.3-.6.6v9h-1V23.8c0-.4-.4-.6-.7-.6H26c-.4 0-.7.2-.7.6V38H24v-6.5c0-.3 0-.6-.5-.6H21c-.2 0-.4.2-.4.5V38h-2.4v1.2h5.3zm7.7-9.5h1.2V38h-1.2v-8.3zm-4.7-5.3h1.2V38h-1.2V24.4zM21.7 32H23v6h-1.3v-6zM53.8 30v-.7c-.4-1.4-1.2-2.8-2.2-4-1-1-2.5-1.7-4-2H44.6c-1.4.3-2.8 1-4 2v.2c-1.3 1.4-2 3.3-2 5.4 0 2 .7 4 2 5.3 1.2 1 2.6 2 4 2.2h1.7c4.2 0 7.6-3.3 7.6-7.6v-1zM43 25.2c.2 0 .4-.2.5-.3l.6-.3h.2c.2 0 .3 0 .5-.2H48v.2c.3 0 .4 0 .6.2h.6v.2c.4.2.8.4 1 .7l-4 4-4.3-4c.2-.4.6-.6 1-.8zm8 1.5l.5.5.3.6.5 1v.2c0 .2 0 .3.2.5V30.5h-5l3.6-3.6zm-10 0l4.3 4.2-4.2 4c-1-1-1.4-2.5-1.4-4 0-1.7.5-3 1.5-4.3zm4.5 10.7h-.7L44 37c-.3 0-.4-.2-.6-.3l-.6-.3c-.4-.3-.8-.5-1-.8l4.3-4.5h6.3v.7l-.2.2V33c-.2 0-.2.3-.2.4l-.2.2v.3c-.2 0-.2 0-.2.2l-.2.3-.2.2s0 .2-.2.3l-.2.2-.2.2-.2.2s0 .2-.2.2l-.2.2-.3.2c-.2 0-.3 0-.3.2 0 0-.2 0-.3.2H49s0 .2-.2.2l-.2.2h-.4l-.2.2h-.4-.2l-.4.2H46h-.5zM27.8 50.6l5 2.8h.6l9-7 7 5.2.6-1-7-5.3c-.3-.2-.6-.2-.8 0l-9.2 7-5-3c-.3 0-.6 0-.7.2L22 54.8l.8 1 5-5.2z"/><path d="M53.2 41H18.8c-.4 0-.6.3-.6.6v16.6c0 .4.2.6.6.6h34.4c.4 0 .6-.2.6-.6V41.6c0-.3-.2-.6-.6-.6zm-.6 16.6H19.4V42.2h33.2v15.4z"/></g></g></svg>