<svg width="72" height="83" viewBox="0 0 72 83" xmlns="http://www.w3.org/2000/svg" xmlns:xlink="http://www.w3.org/1999/xlink"><defs><linearGradient x1="50%" y1="108.1%" x2="50%" y2="0%" id="b"><stop stop-color="#21C2D2" offset="0%"/><stop stop-color="#507CE4" offset="100%"/></linearGradient><path id="a" d="M36 0l36 20.8v41.5L36 83 0 62.3V20.8z"/></defs><g fill="none" fill-rule="evenodd"><g><use fill="#F9FAFB" xlink:href="#a"/><path stroke="url(#b)" stroke-width="3" d="M36 1.7l-34.5 20v39.7l34.4 20 34.4-20V21.6L36 1.6z"/></g><g stroke="#635FEB" stroke-width=".5" fill="#635FEB"><path d="M17.3 50.2V43c0-1 .7-1.8 1.6-2l2-.6 1-.3s.2 0 .2-.2v-1.3c-.6-.5-1-1.2-1-2v-.4h-.3c-.3 0-.5 0-.6-.3v-1c-.2-.5 0-.7.4-.7v-2c0-1.4 1-2.5 2.4-2.5h1.5c1.3 0 2.4 1 2.4 2.4v2c.5 0 .7.2.7.6l-.2 1c0 .3-.2.4-.4.4s-.2.3-.2.6c0 .7-.4 1.3-1 1.8v1.3c0 .2 0 .3.2.3l.8.3c.5-.3 1-.6 1.6-.7l-1.6-.4V39c.6-.6 1-1.4 1-2 .4-.3.7-.7.7-1.2l.2-1c0-.5 0-1-.4-1.4v-1.5c0-2-1.7-3.5-3.5-3.5h-1.6c-2 0-3.4 1.5-3.4 3.4v1.3l-.2.2c-.3.3-.5.8-.4 1.3l.2 1c0 .5.3 1 .7 1 .2 1 .6 1.6 1 2.2v.2l-2.3.7c-1.5.2-2.5 1.5-2.5 3v7.8l.5.3 7.8 4.7v-1.2l-7.2-4.3zM54.3 40l-2.5-.8V39c.6-.6 1-1.3 1-2 .5-.3.7-.7.8-1l.2-1.2c0-.5 0-1-.4-1.3 0 0 0-.2-.2-.2V32c0-2-1.5-3.5-3.4-3.5h-1.6c-1.8 0-3.4 1.5-3.4 3.4v1.3h-.2c-.3.5-.4 1-.4 1.4l.2 1c0 .6.4 1 .7 1.2.2.7.6 1.4 1.2 2v.2l-.6.2-1 .3c.5 0 1 .3 1.6.6l.8-.2s.2 0 .2-.2v-1.3c-.6-.5-1-1.2-1-2v-.4h-.3c-.4 0-.5 0-.6-.3v-1c-.2-.4 0-.7.4-.7v-2c0-1.4 1-2.4 2.4-2.4h1.5c1.3 0 2.4 1 2.4 2.3v2c.5 0 .7.3.7.6l-.2 1c0 .3-.2.5-.4.5-.2.2-.2.4-.2.6 0 .7-.4 1.4-1 1.8V40s0 .3.2.3l3 1c1 .2 1.7 1 1.7 2v7.2l-7.2 4.2v1.3l7.7-4.6.5-.2V43c0-1.4-1-2.7-2.4-3zM33 29.4c.8 0 1.5-.4 1.8-1 .8.6 1.7 1 2.7 1h3v-1h-3c-1 0-1.8-.6-2.2-1.4l-.5-1-1 1.8c0 .3-.4.5-.7.5h-.4v1h.5z"/><path d="M44.4 40.5l-4.2-1.2v-1c1-1 1.5-2 1.6-3.3.6-.2 1-.7 1-1.3l.4-1.7c0-.5 0-1-.4-1.5l-.4-.4v-2.3c0-2.5-2.2-4.6-4.7-4.6h-2.3c-2.6 0-4.7 2.2-4.7 4.7V30l-.4.5c-.4.4-.5 1-.5 1.5l.3 1.7c.2.6.6 1 1.2 1.3 0 1.2.7 2.4 1.6 3.2v1l-1.3.4-3 .8c-1.8.4-3.2 2.2-3.2 4.2V56l.6.4 10 6 .7.4.6-.3 10-6 .5-.5V44.7c0-2-1.5-3.8-3.4-4.2zm2.3 15l-10 6-10.4-6V44.7c0-1.6 1-3 2.6-3.2l2.8-.8 1.7-.5c.2 0 .3-.2.3-.5V39c.7.5 1.3.7 2 .7h.6v-1h-.6c-.4 0-1-.2-1.2-.5l-.8-.5c-1-.7-1.5-1.7-1.6-2.8v-1h-.4c-.3 0-.6-.2-.7-.5v-1.7c-.2-.5.2-1 .7-1v-3c0-2 1.7-3.6 3.6-3.6h2.3c2 0 3.6 1.5 3.6 3.5V31c.6 0 1 .3 1 .8l-.4 1.7c0 .3-.3.5-.6.5h-.4v1c0 1-.7 2-1.6 2.6V42h1v-1.4l4 1c1.3.4 2.4 1.7 2.4 3.2v11z"/></g></g></svg>