<svg id="Layer_1" xmlns="http://www.w3.org/2000/svg" viewBox="0 0 180 200"><style>.st0{fill:#F9FAFB;} .st1{fill:#635FEA;stroke:#F9FAFB;stroke-width:0.75;stroke-miterlimit:10;}</style><path class="st0" d="M.3-.6h180.4v201H.3z"/><path class="st1" d="M98.5 111.8c0-1.3 1-2.4 2.4-2.4h21.4c1.3 0 2.4 1 2.4 2.4s-1 2.4-2.4 2.4H101c-1.4 0-2.5-1.2-2.5-2.4zm0-11.8c0-1.3 1-2.4 2.4-2.4h21.4c1.3 0 2.4 1 2.4 2.4s-1 2.4-2.4 2.4H101c-1.4 0-2.5-1-2.5-2.4zm0-11.8c0-1.3 1-2.4 2.4-2.4h21.4c1.3 0 2.4 1 2.4 2.4s-1 2.4-2.4 2.4H101c-1.4 0-2.5-1-2.5-2.4zm0-11.7c0-1.3 1-2.4 2.4-2.4h21.4c1.3 0 2.4 1.2 2.4 2.5s-1 2.4-2.4 2.4H101c-1.4-.2-2.5-1-2.5-2.5zM78 111.8c0 1.3-1 2.4-2.3 2.4H54.2c-1.3 0-2.4-1-2.4-2.4s1-2.4 2.4-2.4h21.5c1.3 0 2.4 1 2.4 2.4zm0-11.8c0 1.3-1 2.4-2.3 2.4H54.2c-1.3 0-2.4-1-2.4-2.4s1-2.4 2.4-2.4h21.5c1.3 0 2.4 1 2.4 2.4zm0-11.8c0 1.3-1 2.4-2.3 2.4H54.2c-1.3 0-2.4-1-2.4-2.4s1-2.4 2.4-2.4h21.5c1.3 0 2.4 1.2 2.4 2.4zm0-11.7c0 1.3-1 2.4-2.3 2.4H54.2c-1.3 0-2.4-1.2-2.4-2.5s1-2.4 2.4-2.4h21.5c1.3 0 2.4 1.2 2.4 2.5zm53.3 48.8H98c-3.2 0-5.6.5-7.3 1.4V67c0-3.4 4.6-4 7.3-4h33.2v62.3zM86 126.5c-1.8-.8-4.2-1.4-7.4-1.4H45.4V63h33.2c2.7 0 7.3.6 7.3 4v59.5zm47.6-68.2H98c-5 0-8 1.3-9.7 3-1.7-1.6-4.8-3-9.7-3H43c-1.3 0-2.4 1-2.4 2.4v67c0 1.2 1 2.3 2.4 2.3h35.6c2.7 0 7.3.5 7.3 4 0 1.3 1 2.4 2.3 2.4s2.4-1 2.4-2.4c0-3.3 4.6-4 7.3-4h35.6c1.3 0 2.4-1 2.4-2.4v-67c0-1.2-1-2.3-2.4-2.3z"/></svg>