<svg xmlns="http://www.w3.org/2000/svg" width="37" height="37" viewBox="0 0 37 37"><defs><linearGradient x1="-2%" y1="-9.1%" x2="144.9%" y2="130.6%" id="a"><stop stop-color="#21C2D2" offset="0%"/><stop stop-color="#635FEB" offset="100%"/></linearGradient></defs><g transform="translate(1 1)" fill="none" fill-rule="evenodd"><circle stroke="url(#a)" stroke-width="2" cx="17.5" cy="17.5" r="17.5"/><path d="M26 18c0-.2 0-.4-.2-.5l-4.4-4.3c-.3-.2-.8-.3-1.2 0-.3.2-.3.8 0 1l3 3H9c-.4 0-.8.4-.8.8s.4.7.8.7h14.5l-3 3c-.3.3-.4.8 0 1 .2.4.8.3 1 0l4.5-4.2.2-.5z" stroke="#635FEB" fill="#635FEB"/></g></svg>