<svg width="24" height="24" viewBox="0 0 24 24" version="1.1" xmlns="http://www.w3.org/2000/svg" xmlns:xlink="http://www.w3.org/1999/xlink"><title>Facebook</title><desc>Logo</desc><g id="Symbols" stroke="none" stroke-width="1" fill="none" fill-rule="evenodd"><g id="Footer" transform="translate(-1181.000000, -322.000000)"><g id="facebook-icon-dark" transform="translate(1181.000000, 322.000000)"><circle id="Oval-5-Copy" stroke="#797C92" stroke-width="1.333" cx="12" cy="12" r="11.333"/><path d="M12.6974743,10.2751399 L14.8444114,10.2751399 C14.8127314,10.9457685 14.78136,11.612077 14.7495771,12.2832199 L12.6957257,12.2832199 L12.6957257,17.778877 L10.5709029,17.778877 L10.5709029,12.283837 L9.12,12.283837 L9.12,10.2760656 L10.5704914,10.2760656 L10.5704914,10.2185685 C10.5704914,9.67568847 10.5698743,9.13280847 10.5706971,8.58992847 C10.5712114,8.28824847 10.6138971,7.99263704 10.71192,7.70669418 C10.95024,7.01168847 11.4191657,6.53679704 12.0975086,6.26432847 C12.3267771,6.17227132 12.5653029,6.11436275 12.8095886,6.07825989 C13.12248,6.03207704 13.4369143,6.02785989 13.7520686,6.04030561 C13.9155086,6.04668275 14.0791543,6.05110561 14.2422857,6.06200847 C14.4282514,6.07435132 14.6139086,6.09276275 14.7995657,6.10891132 C14.8099543,6.10983704 14.8200343,6.11395132 14.83392,6.11744847 C14.8181829,6.73973418 14.8025486,7.36119704 14.7867086,7.98739132 C14.7650057,7.98811132 14.7457714,7.98944847 14.7265371,7.98944847 C14.3181943,7.98831704 13.9099543,7.98718561 13.5016114,7.98564275 C13.3804457,7.98523132 13.2603086,7.99397418 13.14264,8.02493418 C12.9579086,8.07348275 12.8206971,8.17747132 12.7565143,8.36281989 C12.7386171,8.41445418 12.7233943,8.46835132 12.7170171,8.52245418 C12.7058057,8.61944847 12.6967543,8.71726561 12.6963429,8.81477418 C12.6942857,9.28575704 12.6953143,9.75673989 12.6954171,10.2277228 C12.6954171,10.2412999 12.6965486,10.2547742 12.6974743,10.2751399" id="Imported-Layers" fill="#797C92" fill-rule="evenodd"/></g></g></g></svg>